<?xml version="1.0" encoding="UTF-8" standalone="no"?>
<!DOCTYPE svg PUBLIC "-//W3C//DTD SVG 1.1//EN" "http://www.w3.org/Graphics/SVG/1.1/DTD/svg11.dtd">
<svg width="100%" height="100%" viewBox="0 0 89 89" version="1.1" xmlns="http://www.w3.org/2000/svg" xmlns:xlink="http://www.w3.org/1999/xlink" xml:space="preserve" xmlns:serif="http://www.serif.com/" style="fill-rule:evenodd;clip-rule:evenodd;stroke-linecap:round;stroke-linejoin:round;stroke-miterlimit:1.5;">
    <g transform="matrix(1,0,0,1,-1379.6,-256.827)">
        <g transform="matrix(1,0,0,1,707,25.5)">
            <g transform="matrix(0.223084,-0.223084,0.223084,0.223084,437.858,150.285)">
                <rect x="248" y="809" width="193" height="193" style="fill:white;fill-opacity:0.48;"/>
                <clipPath id="_clip1">
                    <rect x="248" y="809" width="193" height="193"/>
                </clipPath>
                <g clip-path="url(#_clip1)">
                    <g transform="matrix(0.0460428,0.0460428,-0.0460428,0.0460428,329.197,781.948)">
                        <path d="M2037.57,1820.8L2037.57,1854.28L2045.39,1854.28L2050.74,1838.4L2057.17,1831.61L2065.01,1831.61L2066.65,1836.29L2063.61,1840.85L2065.01,1849.75C2065.01,1849.75 2072.5,1854.36 2074.02,1854.28C2075.54,1854.19 2080.34,1848.58 2080.34,1848.58C2080.34,1848.58 2084.09,1840.62 2085.61,1840.85C2087.13,1841.09 2090.76,1840.27 2093.45,1838.4C2096.14,1836.52 2101.05,1827.4 2101.05,1827.4C2101.05,1827.4 2098.6,1820.29 2096.61,1820.8C2094.62,1821.31 2090.05,1825.52 2090.05,1823.65L2090.05,1813.24L2083.39,1813.24C2083.39,1813.24 2078.24,1819.59 2076.83,1820.8C2075.43,1822.01 2066.65,1819.94 2066.65,1820.8C2066.65,1821.66 2065.01,1827.4 2065.01,1827.4C2065.01,1827.4 2062.32,1821.34 2059.63,1820.8C2056.94,1820.26 2052.14,1817.92 2052.14,1817.92C2052.14,1817.92 2055.18,1813.94 2055.42,1811.72C2055.65,1809.49 2052.14,1801.65 2052.14,1801.65L2041.38,1807.15L2036.58,1813.24L2037.57,1820.8Z"/>
                    </g>
                    <g transform="matrix(0.0460428,0.0460428,-0.0460428,0.0460428,329.197,781.948)">
                        <path d="M2088.42,1848.58C2088.42,1848.58 2089.24,1858.06 2090.05,1857.82C2090.87,1857.59 2093.92,1857.35 2094.74,1855.48C2095.55,1853.61 2097.08,1848.58 2097.08,1848.58L2091.69,1847.06L2088.42,1848.58Z"/>
                    </g>
                    <g transform="matrix(0.0460428,0.0460428,-0.0460428,0.0460428,329.197,781.948)">
                        <path d="M2121.65,1851.15L2134.64,1864.14L2139.67,1855.25L2130.78,1846.82L2123.76,1845.53L2121.65,1851.15Z"/>
                    </g>
                    <g transform="matrix(0.0460428,0.0460428,-0.0460428,0.0460428,329.197,781.948)">
                        <path d="M2005.88,203.597L2005.88,228.118L2015.69,218.8L2023.53,203.597L2005.88,203.597Z"/>
                    </g>
                    <g transform="matrix(0.0460428,0.0460428,-0.0460428,0.0460428,329.197,781.948)">
                        <path d="M1517.91,243.321C1517.91,243.321 1510.06,258.034 1517.91,260.486C1525.75,262.938 1536.05,260.486 1536.05,260.486L1542.92,249.696L1517.91,243.321Z"/>
                    </g>
                    <g transform="matrix(0.0460428,0.0460428,-0.0460428,0.0460428,329.197,781.948)">
                        <path d="M1155.84,318.562L1197.03,318.562L1184.09,304.438L1165.65,304.438L1155.84,318.562"/>
                    </g>
                    <g transform="matrix(0.0460428,0.0460428,-0.0460428,0.0460428,329.197,781.948)">
                        <path d="M1500,1724.24L1516.16,1747.58L1549.39,1759.26L1581.71,1759.26L1581.71,1738.6L1549.39,1724.24L1500,1724.24Z"/>
                    </g>
                    <g transform="matrix(0.0460428,0.0460428,-0.0460428,0.0460428,329.197,781.948)">
                        <path d="M1892.42,2055.59L1918.46,2064.57L1943.6,2083.43L1943.6,2055.59L1918.46,2042.12L1892.42,2042.12L1892.42,2055.59Z"/>
                    </g>
                    <g transform="matrix(0.0460428,0.0460428,-0.0460428,0.0460428,329.197,781.948)">
                        <path d="M1978.63,2113.07L1978.63,2142.7L1990.3,2142.7L2006.46,2122.94L1978.63,2113.07Z"/>
                    </g>
                    <g transform="matrix(0.0460428,0.0460428,-0.0460428,0.0460428,329.197,781.948)">
                        <path d="M1692.17,2044.82L1692.17,2062.78L1676.9,2062.78L1676.9,2097.8L1692.17,2119.35L1692.17,2159.76L1700.28,2172.03L1719.11,2172.03L1728.53,2162.91L1734.12,2172.03L1746.48,2166.14L1755.89,2172.03L1770.61,2183.8L1787.38,2183.8L1804.15,2188.8L1820.92,2196.74C1820.92,2196.74 1832.99,2194.1 1835.93,2188.8C1838.87,2183.5 1850.06,2172.03 1850.06,2172.03L1854.47,2149.37L1841.82,2142.01L1820.92,2149.37L1808.27,2142.01L1804.15,2124.65C1804.15,2124.65 1795.62,2119.05 1791.79,2119.35C1787.97,2119.65 1784.44,2123.47 1782.38,2119.35C1780.32,2115.24 1775.32,2103.17 1775.32,2103.17L1770.61,2081.99L1755.89,2081.99L1746.48,2072.86L1734.12,2066.39L1724.7,2066.39L1719.11,2062.78L1713.82,2049.32L1696.75,2044.82L1692.17,2044.82"/>
                    </g>
                    <g transform="matrix(0.0460428,0.0460428,-0.0460428,0.0460428,329.197,781.948)">
                        <path d="M3186,578.578L3165.03,574.33L3159.93,580.253L3124.52,601L3079.32,606.638L3026,606.638L2989.3,602.139L2952.72,586L2952.72,569L2948.02,559.792L2941,551L2941,528L2971,528L2966.8,501L2971,479L2941,490.43L2924.98,490.43L2917.41,501L2903.04,490.43L2897.12,479L2887.96,490.43L2880.96,501L2868.04,490.43L2860.5,501L2852.43,515.637L2838.96,528L2824.43,528L2812.58,540.945L2818.5,551L2812.58,559.792L2824.43,574.33L2824.43,601L2838.96,612.561L2852.43,618.485L2860.5,625.485L2852.43,633.562L2845.96,625.485L2845.96,641.1L2852.43,657.793L2852.43,675.562L2838.96,669.101L2824.43,649.177L2828.73,633.562L2818.5,618.485L2812.58,601L2812.58,580.253L2795.35,569L2795.35,559.792L2770.04,551L2753.89,559.792L2745.27,551L2731.27,551L2719.96,559.792L2712.96,569L2695.19,574.33L2695.19,586L2685.5,601L2676.89,601L2676.89,580.253L2667.19,580.253L2667.19,606.638L2656.42,612.561L2656.42,601L2641.35,593.715L2641.35,580.253L2627.67,569L2620.78,551L2620.78,540.945L2627.67,528L2609.58,528L2589.33,540.945L2574.25,559.792L2565.21,569L2558.74,559.792L2554.01,551L2565.21,540.945L2574.25,528L2574.25,515.637L2589.33,501L2598.5,496.083L2581.08,496.083L2574.25,490.43L2574.25,474.689L2558.74,479L2558.74,493.215L2542.92,501L2531.9,508.434L2518.44,511.963L2507.19,519.241L2495.06,525.417L2486.02,531.813L2480.28,515.637L2468.6,511.963L2455.58,515.637L2443.45,511.963L2435.29,519.241L2427.57,519.241L2429.56,528L2443.45,531.813L2438.82,540.945L2423.01,559.792L2405.09,569L2385.34,574.33L2367.42,574.33L2360.98,586L2343.06,606.638L2330.2,618.485L2307.22,641.1L2298.95,649.177L2298.95,662.906L2277.82,662.906L2265.87,649.177L2254.38,649.177L2254.38,703.801L2228.19,662.906L2223.14,641.1L2234.16,625.485L2223.14,612.561L2199.24,606.638L2186.84,601L2186.84,580.253L2163.4,580.253L2157.43,569L2146.86,569L2146.86,490.43L2119.78,467.44L2119.78,456.167L2102.14,456.167L2096.75,435.582L2096.75,426.269L2083.03,426.269L2083.03,418.918L2069.79,418.918L2069.79,406.174L2061.95,396.372L2053.62,396.372L2053.62,385.099L2061.95,378.727L2061.95,366.474L2069.79,355.201L2053.62,341.233L2012.45,341.233L1998.72,327.019L1998.72,318.687L1984.02,311.825L1993.82,302.023L2004.11,293.691L2012.45,286.339L2004.11,286.339L2004.11,265.263L1964.9,265.263L1947.26,274.576L1947.26,256.686L1939.91,242.472L1947.26,230.219L1947.26,203.262L1914.91,203.262L1897.76,213.555L1878.15,218.456L1878.15,230.219L1863.94,230.219L1854.14,242.472L1854.14,256.686L1847.27,256.686L1847.27,237.081L1839.92,237.081L1847.27,213.555L1839.92,197.381L1819.83,203.262L1803.16,218.456L1791.4,230.219L1774.25,230.219L1751.84,225.248L1739.52,230.219L1727.75,242.472L1707.59,247.654L1689.94,252.415L1689.94,269.219L1648.77,269.219L1648.77,260.817L1657.74,252.415L1657.74,242.472L1644.29,247.654L1632.25,242.472L1626.65,237.081L1621.89,225.248L1615.44,218.456L1607.6,230.219L1593.32,230.219L1599.76,218.456L1588.56,225.248L1578.2,230.219L1563.91,237.081L1563.91,256.686L1556.63,260.817L1550.19,269.219L1540.67,265.263L1536.47,274.576L1528.62,282.383L1523.86,290.785L1523.86,302.023L1528.62,308.989L1536.47,311.825L1550.19,318.687L1550.19,334.09L1556.63,341.233L1578.2,346.124L1615.44,346.124L1593.32,346.124L1588.56,349.907L1550.19,349.907C1546.33,349.747 1534.81,352.147 1534.81,352.147L1528.62,360.47L1528.62,371.993L1526.33,387.356L1518.16,396.372L1523.86,402.592L1530.76,402.592L1530.76,412.794L1522.16,418.918L1506.96,423.597L1497.56,423.597L1497.56,414.995L1493.15,406.174L1474.75,406.174L1477.75,414.995L1470.95,414.995L1470.95,406.174L1477.75,396.372L1481.55,390.789L1470.95,390.789L1460.35,392.989L1454.14,396.372L1445.74,398.591L1432.94,396.372L1426.54,387.356L1418.74,382.387L1410.93,376.585L1401.53,371.993L1391.53,366.474L1380.33,368.783L1374.52,368.783L1371.32,371.993L1365.52,376.585L1358.92,371.993L1353.92,366.474L1346.72,360.47L1337.91,358.18L1334.51,349.907L1329.91,358.18L1329.91,366.474L1328.11,371.993L1326.11,366.474L1321.91,358.18L1315.91,364.182L1309.51,371.993L1303.71,376.585L1300.51,385.099L1296.5,392.989L1296.5,402.592L1300.51,406.174L1300.51,414.995L1296.5,418.918L1296.5,412.794L1294.1,418.918L1294.1,445.503L1296.5,450.704L1303.71,456.167L1312.11,461.907L1315.91,464.107L1314.11,467.44L1306.91,464.107L1300.51,464.107L1294.1,467.44L1289.3,467.44L1289.3,456.167L1284.1,450.704L1273.7,445.503L1265.3,441.802L1257.49,435.582L1253.49,423.597L1255.69,418.918L1260.89,412.794L1265.3,408.393L1260.89,406.174L1251.49,406.174L1249.09,402.592L1240.89,402.592L1237.69,406.174L1233.49,412.794L1227.69,418.918L1221.29,423.597L1214.88,430.099L1214.88,445.503L1217.48,456.167L1214.88,464.107L1210.28,470.409L1206.68,467.44L1206.68,456.167L1210.28,445.503L1210.28,435.582L1212.28,426.269L1214.88,412.794L1221.29,402.592L1212.28,396.372L1206.68,396.372L1206.68,371.993L1200.66,364.182L1200.66,352.147L1206.68,341.233C1206.68,341.233 1211.51,335.34 1206.68,334.09C1201.86,332.84 1194.65,334.09 1194.65,334.09L1188.65,341.233L1182.65,346.124L1177.05,341.233L1170.25,341.233L1170.25,349.907L1151.04,349.907L1151.04,355.201L1136.64,355.201L1131.84,360.47L1131.84,371.993L1128.01,375.482L1122.39,378.727L1117.27,375.482L1113.92,371.993L1109.47,368.783L1105.69,368.783L1102.51,371.993L1099.49,368.783L1096.97,365.078L1090,362.98L1081.7,360.47C1081.7,360.47 1078.14,359.38 1073.72,360.47C1069.29,361.559 1069.46,359.544 1064.38,360.47C1059.3,361.395 1053.56,362.98 1053.56,362.98L1043.89,362.98L1040.45,366.474L1034.71,368.783L1026.52,371.993L1017.51,371.993L1014.88,375.482L1007.84,378.727L1003.58,385.099L996.038,387.356L996.038,402.592L1000.95,404.332L1009.48,408.393L1003.58,408.393L998.496,412.794L993.416,410.396L988.663,408.393L982.6,406.174L977.01,408.393L969.353,408.393C969.353,408.393 965.892,408.03 962.851,408.393C959.809,408.756 955.928,408.393 955.928,408.393L950.894,408.393L945.44,410.396L943.132,412.794C943.132,412.794 942.293,415.993 939.881,416.622C937.469,417.252 930.966,418.918 930.966,418.918L927.505,421.867L923.834,424.698L916.911,423.597L914.289,420.818C914.289,420.818 913.135,416.829 913.24,414.995C913.345,413.161 912.087,409.289 914.289,408.393C916.492,407.497 917.436,407.893 919.009,406.174C920.582,404.456 923.834,401.204 923.834,401.204L927.505,395.016L928.868,387.356C928.868,387.356 923.624,389.556 922.68,387.356C921.736,385.157 919.953,381.067 919.009,380.647C918.065,380.227 915.758,378.727 915.758,378.727L909.569,376.585L906.423,378.727L904.43,371.993L899.605,368.783C899.605,368.783 890.376,368.666 888.907,368.783C887.439,368.9 877.894,371.993 877.894,371.993L872.021,376.585L865.623,380.647L857.652,385.099L847.793,387.356L842.024,392.989L834.367,395.016L825.452,392.989L819.159,391.87L815.069,388.513L815.069,396.372L819.159,401.204L822.096,404.332L825.452,406.174L830.172,408.393L834.367,412.794C834.367,412.794 828.808,413.371 826.816,412.794C824.823,412.217 824.403,414.21 822.096,412.794C819.788,411.378 814.544,409.938 811.293,410.396C808.041,410.854 805,409.204 803.951,410.396C802.902,411.588 797.763,414.995 797.763,414.995L791.679,418.918L789.372,421.867C789.372,421.867 782.135,423.125 780.247,423.597C778.359,424.069 771.856,423.597 771.856,423.597C771.856,423.597 764.934,421.132 762.941,421.867C760.948,422.601 753.921,421.867 753.921,421.867L749.726,421.867L745.74,416.622L743.223,410.396L738.608,410.396L734.937,414.995L730.637,410.396L724.344,402.592L719.204,406.174L717.736,410.396L717.736,418.918C717.736,418.918 712.072,420.923 710.814,420.818C709.555,420.713 697.284,420.818 697.284,420.818L685.283,430.099L697.284,439.501L724.344,450.704L743.223,464.107L762.941,474.689L762.941,490.43L755.249,476.247L749.726,472.995C749.726,472.995 741.089,467.968 740.146,467.44C739.202,466.912 736.16,466.022 734.062,464.107C731.965,462.192 724.904,458.416 724.344,457.577C723.784,456.738 719.378,450.858 716.756,450.704C714.134,450.55 707.841,451.172 706.163,450.704C704.485,450.235 691.06,450.704 691.06,450.704L680.466,451.914C680.466,451.914 678.683,446.145 676.271,443.628C673.859,441.11 670.188,439.255 669.034,439.501C667.88,439.747 660.958,441.802 660.958,441.802L660.958,451.914L658.231,460.304L664.629,464.107L661.902,470.409L658.231,474.689L664.629,480.547L672.18,483.484L676.271,490.43C676.271,490.43 680.781,494.392 682.144,494.916C683.508,495.441 688.018,496.699 692.528,497.433C697.038,498.168 699.241,495.965 701.443,497.433C703.646,498.902 710.814,501 710.814,501L715.288,501L723.154,505.719L730.637,508.434L740.146,511.963L748.222,513.69L745.74,517.361L740.146,517.361C740.146,517.361 736.336,517.164 734.937,515.637C733.538,514.11 732.455,515.264 730.637,513.69C728.818,512.117 726.091,511.963 726.091,511.963L724.344,513.69C724.344,513.69 722.21,514.116 720.952,511.963C719.693,509.81 722.491,510.1 719.204,508.434C715.917,506.768 716.232,506.663 714.134,505.719C712.037,504.775 709.834,503.936 707.422,503.412C705.009,502.887 705.534,501.21 702.492,501C699.45,500.79 695.675,501 695.675,501C695.675,501 694.206,501.63 691.06,501C687.913,500.37 685.92,501.945 683.718,501C681.515,500.055 681.515,500.055 679.417,499.216C677.32,498.377 674.907,496.594 673.649,494.916C672.39,493.238 670.293,489.567 669.034,487.889C667.775,486.211 667.356,484.533 664.629,483.484C661.902,482.435 662.426,481.806 660.014,480.547C657.602,479.288 652.672,475.932 651.413,476.247C650.155,476.561 640.925,474.689 640.925,474.689C640.925,474.689 631.59,475.438 623.304,474.689C615.019,473.939 595.405,472.995 595.405,472.995L587.854,476.247L578.729,477.4L574.533,484.533L574.533,493.215L565.933,493.215C565.933,493.215 561.947,490.245 560.688,490.43C559.43,490.616 548.102,497.433 548.102,497.433L540.446,505.719L536.565,513.69L531.478,519.241L522.563,528C522.563,528 523.874,533.487 522.563,534.667C521.252,535.847 516.663,540.945 516.663,540.945L516.663,548.827L508.797,561.544L508.797,580.253L516.663,586L522.563,590.772L536.565,590.772L548.102,591.667L544.693,595.337C544.693,595.337 541.48,594.979 540.446,595.337C539.412,595.695 530.551,596.769 530.551,596.769L524.734,596.769L519.632,599.185L512.651,602.139L507.192,609.657L507.192,618.485L499.735,625.485L493.544,633.562L493.544,641.1L488.445,649.177L484.803,662.906L488.445,675.562L493.544,675.562L499.735,688.366L499.735,703.801L508.797,703.801L512.651,718.593L499.735,724.42L493.544,724.42L488.445,729.519L493.544,739.352L493.544,771.764L507.192,771.764L516.663,775.77L540.446,775.77L548.102,771.764L548.102,767.758L560.688,767.758L560.688,759.018L554.362,753.191L560.688,749.185L565.933,745.543L571.17,746.642L576.612,749.185L581.195,753.191L587.854,754.566L593.319,759.018L598.57,761.249L602.579,763.024L606.016,765.927L610.885,767.758L614.513,771.764L624.633,773.66L632.652,773.66C632.652,773.66 635.707,772.159 637.33,771.764C638.953,771.368 642.676,769.745 642.676,769.745L649.645,767.758L655.755,765.927L660.014,763.024L664.629,761.249L672.18,756.666L678.381,753.191L680.466,749.185L685.283,749.185C685.283,749.185 689.418,753.629 691.06,753.191C692.701,752.752 699.957,753.191 699.957,753.191L704.826,751.129L707.422,745.543L716.756,736.261L730.637,736.261L738.608,732.084C738.608,732.084 746.933,730.334 748.222,729.519C749.51,728.703 760.051,726.714 760.051,726.714L768.803,724.42L783.918,718.593L789.372,712.195L800.029,714.98L809.774,724.42L822.096,724.42L830.172,714.98C830.172,714.98 837.478,710.803 842.024,710.206C846.569,709.61 857.652,703.801 857.652,703.801L868.447,703.801L872.021,698.273L888.907,693.698L899.605,688.366L893.707,696.085L882.768,698.273L877.894,703.801L865.623,710.206L854.525,712.195L838.415,718.593C838.415,718.593 830.531,725.322 826.816,726.714C823.1,728.107 818.573,731.488 815.069,732.084C811.564,732.681 803.951,736.261 803.951,736.261L797.763,745.543L789.372,756.666L777.952,763.024L773.974,771.764L780.247,775.77L780.247,780.614L768.803,783.001C768.803,783.001 764.041,789.763 762.941,791.354C761.842,792.945 762.941,798.116 762.941,798.116L780.247,798.116L789.372,791.354C789.372,791.354 796.25,793.343 800.029,791.354C803.808,789.365 819.159,783.001 819.159,783.001L813.354,791.354C813.354,791.354 806.481,794.139 803.951,795.133C801.421,796.127 795.653,800.901 795.653,800.901L803.951,804.481L822.096,804.481C822.096,804.481 820.587,804.68 826.816,800.901C833.045,797.122 842.024,791.354 842.024,791.354C842.024,791.354 848.22,783.796 847.793,780.614C847.365,777.432 850.547,774.251 854.525,771.764C858.503,769.277 865.623,763.024 865.623,763.024L857.652,775.77L865.623,773.66L868.447,767.758L877.894,761.249L877.894,769.745L872.021,780.614L868.447,786.382L877.894,788.769C877.894,788.769 879.188,790.161 882.768,788.769C886.348,787.376 889.279,789.365 888.907,786.382C888.535,783.398 888.907,773.66 888.907,773.66L893.707,769.745L904.43,773.66L913.24,775.77L922.68,775.77L914.289,786.382L906.423,791.354L893.707,798.116L884.558,800.901L877.894,804.481L868.447,810.448L865.623,814.823C865.623,814.823 868.633,816.812 872.021,817.807C875.409,818.801 882.37,819.597 882.768,820.392C883.165,821.188 883.312,825.365 888.907,825.563C894.502,825.762 904.43,825.563 904.43,825.563C904.43,825.563 905.924,818.801 913.24,817.807C920.557,816.812 925.9,816.017 927.505,814.823C929.109,813.63 933.883,810.448 933.883,810.448L923.834,820.392L916.911,823.575L913.24,828.945L919.009,835.508L923.834,839.884L930.966,839.884L933.883,835.508L943.132,832.326L948.203,828.945L943.132,839.884L939.881,845.254L945.44,847.442L958.148,849.828L965.109,854.005L962.851,857.386C962.851,857.386 954.38,857.585 950.894,857.386C947.407,857.187 939.881,857.386 939.881,857.386L933.883,859.375L927.505,864.546L915.758,868.325L909.569,880.556L919.009,889.297L933.883,903.864L948.203,909.205L950.894,917.46L933.883,909.205C933.883,909.205 925.463,907.908 923.834,903.864C922.204,899.82 916.557,895.842 914.289,892.819C912.021,889.796 912.369,884.386 909.569,883.272C906.77,882.159 901.36,875.635 901.36,875.635L899.605,868.325C899.605,868.325 898.496,867.141 901.36,864.546C904.224,861.951 906.423,860.678 906.423,860.678L914.289,857.386L909.569,845.254C909.569,845.254 903.419,845.263 899.605,845.254C895.791,845.244 886.212,845.104 884.558,845.254C882.903,845.403 872.021,847.442 872.021,847.442L865.623,849.828C865.623,849.828 855.218,854.81 851.717,854.005C848.217,853.2 836.442,857.386 836.442,857.386L826.816,864.546C826.816,864.546 814.147,863.959 811.293,864.546C808.438,865.133 796.505,862.588 793.959,862.588C791.413,862.588 786.481,854.005 786.481,854.005L783.918,845.254L771.856,842.03L756.535,842.03L748.222,838.466L740.146,847.442C740.146,847.442 726.324,846.743 726.091,847.442C725.858,848.14 718.778,849.031 717.736,848.649C716.694,848.267 714.134,843.812 714.134,843.812L707.422,837.066L706.163,828.945L714.134,820.392L707.422,823.575L701.443,828.945L692.528,835.508L688.053,839.884C688.053,839.884 681.318,832.265 678.381,832.326C675.444,832.386 672.18,823.575 672.18,823.575L678.381,810.448L680.466,800.901L688.053,786.382L692.528,775.77L682.144,773.66L672.18,775.77L661.902,788.769L658.231,798.116L655.755,810.448L658.231,820.392L664.629,832.326L660.958,842.03L655.755,847.442L642.676,849.828L637.33,847.442L632.652,838.466L623.304,832.326L623.304,838.466L614.513,843.812L610.885,859.375L610.885,868.325L606.016,875.635L623.304,875.635L637.33,878.069L642.676,880.556L664.629,883.272L673.649,883.272L673.649,889.297L664.629,897.337L651.413,900.755L651.413,909.205L660.958,909.205L660.958,917.46L661.902,928.414L661.902,963.22L660.014,971.611L651.413,978.137L661.902,986.838L669.034,986.838L672.18,978.137C672.18,978.137 667.503,977.515 673.649,971.611C679.795,965.706 681.76,967.26 685.283,963.22C688.807,959.18 697.284,952.032 697.284,952.032C697.284,952.032 692.397,945.195 697.284,943.02C702.17,940.844 707.422,928.414 707.422,928.414L714.134,917.46L717.736,909.205L748.222,909.205L762.941,920.334C762.941,920.334 775.349,924.995 780.247,928.414C785.146,931.832 791.679,933.697 791.679,933.697L803.951,938.669L819.159,943.02L819.159,952.032L834.367,955.14L847.793,960.112L857.652,963.22L865.623,967.881L872.021,971.611L877.894,978.137L877.894,1007.35L872.021,1013.88L877.894,1018.85L888.907,1026.93L893.707,1039.67L893.707,1053.96L884.558,1057.07L882.768,1060.18L882.768,1075.72L877.894,1087.53L865.623,1096.23C865.623,1096.23 859.614,1093.43 857.652,1096.23C855.69,1099.03 842.024,1096.23 842.024,1096.23L838.415,1091.57L830.172,1084.42L819.159,1075.72L756.535,1075.72L753.921,1080.07L745.74,1084.42L723.154,1084.42L715.288,1087.53L710.814,1091.57L669.034,1091.57L658.231,1096.23L651.413,1103.22L640.925,1099.8L628.518,1096.23L619.195,1099.8L606.016,1103.22L598.57,1103.22L587.854,1109.44L578.729,1109.44L571.17,1103.22L548.102,1103.22L550.826,1109.44L544.693,1115.96L536.565,1115.96L519.632,1109.44L512.651,1112.54L508.797,1120.62L516.663,1128.08L508.797,1131.81L499.735,1136.47L493.544,1144.55L499.735,1151.7L519.632,1151.7C519.632,1151.7 518.841,1158.54 524.734,1159.78C530.626,1161.02 533.484,1156.98 540.446,1159.78C547.408,1162.58 554.362,1164.44 554.362,1164.44L574.533,1167.86L587.854,1176.25L602.579,1179.05L606.016,1187.44L614.513,1193.96L623.304,1193.96C623.304,1193.96 638.725,1198.63 640.925,1197.69C643.124,1196.76 651.413,1187.44 651.413,1187.44L655.755,1179.05L658.231,1164.44L669.034,1159.78L669.034,1164.44L661.902,1167.86L661.902,1176.25L660.014,1187.44L664.629,1193.96L678.381,1197.69L695.675,1210.45C695.675,1210.45 704.872,1216.98 706.163,1220.08C707.454,1223.19 719.204,1231.58 719.204,1231.58L730.637,1241.84L743.223,1255.51C743.223,1255.51 754.706,1263.9 753.921,1267.63C753.136,1271.36 756.535,1283.48 756.535,1283.48L773.974,1305.23L777.952,1322.33L780.247,1334.76L793.959,1326.37L789.372,1340.97L809.774,1340.97L795.653,1350.3L793.959,1361.79L797.763,1377.02L809.774,1383.55L800.029,1388.21L793.959,1396.91L795.653,1413.69L795.653,1427.37L786.481,1432.34L780.247,1427.37L773.974,1436.69L768.803,1436.69L768.803,1455.02L777.952,1472.43L791.679,1469.32C791.679,1469.32 804.88,1469.01 809.774,1469.32C814.669,1469.63 830.172,1469.32 830.172,1469.32L838.415,1477.09L854.525,1481.75C854.525,1481.75 865.666,1485.17 872.021,1484.86C878.376,1484.55 893.707,1481.75 893.707,1481.75L901.36,1469.32L893.707,1462.79L901.36,1455.02L909.569,1469.32L913.24,1477.09L927.505,1481.75L943.132,1462.79L950.894,1446.63L945.44,1436.69L933.883,1432.34L933.883,1417.73L927.505,1402.19L930.966,1396.91L939.881,1407.79L939.881,1402.19L933.883,1391.32L936.179,1377.02L939.881,1380.13L948.203,1383.55L948.203,1402.19L950.894,1410.27L955.928,1413.69C955.928,1413.69 960.786,1413.07 965.109,1410.27C969.431,1407.48 979.376,1402.19 979.376,1402.19L993.416,1402.19L996.038,1391.32L988.663,1380.13L977.01,1368.94L969.353,1350.3L977.01,1350.3L985.156,1361.79L993.416,1377.02C993.416,1377.02 1000.35,1379.69 1000.95,1383.55C1001.56,1387.4 1007.84,1396.91 1007.84,1396.91L1009.48,1407.79L1017.51,1402.19L1026.52,1396.91L1034.71,1402.19L1040.45,1413.69L1048.3,1427.37L1053.56,1432.34C1053.56,1432.34 1060.56,1421.46 1064.38,1421.21C1068.19,1420.96 1086.59,1421.21 1086.59,1421.21L1105.69,1421.21L1105.69,1413.69L1102.51,1396.91L1102.51,1380.13C1102.51,1380.13 1105.5,1373.98 1109.47,1372.48C1113.44,1370.99 1113.92,1365.77 1113.92,1365.77L1128.01,1372.48L1136.64,1377.02L1144.64,1388.21L1151.04,1396.91L1151.04,1405.05L1158.65,1407.79L1163.16,1402.19L1179.82,1394.11L1170.25,1407.79L1167.89,1417.73L1173.11,1417.73L1158.65,1427.37L1167.89,1427.37L1179.82,1432.34L1177.05,1440.85L1167.89,1446.63L1182.65,1462.79L1200.66,1481.75L1210.28,1492.57L1206.68,1503.01L1206.68,1508.97L1227.69,1508.97C1232.78,1508.97 1240.89,1513.94 1240.89,1513.94L1251.49,1519.91L1289.3,1519.91L1296.5,1513.94L1306.91,1506.49L1306.91,1492.57L1300.51,1469.32L1296.5,1455.02L1303.71,1462.79L1306.91,1481.75C1306.91,1481.75 1307.18,1489.33 1309.51,1492.57C1311.84,1495.8 1315.91,1496.79 1315.91,1496.79L1329.91,1492.57L1353.92,1484.86L1358.92,1484.86L1342.66,1496.79L1337.91,1496.79L1326.11,1506.49L1329.91,1516.43C1329.91,1516.43 1334.16,1525.38 1337.91,1527.62C1341.67,1529.86 1346.72,1535.33 1346.72,1535.33L1353.92,1537.56L1371.32,1537.56L1374.52,1535.33L1385.67,1532.09L1385.67,1540.8L1391.53,1545.02L1401.53,1549.25L1415.76,1549.25L1415.76,1540.8L1426.54,1552.23L1440.37,1557.45L1451.06,1557.45L1464.24,1564.17L1470.95,1564.17L1481.55,1568.64L1487.11,1579.33L1493.15,1590.52L1497.56,1601.21L1501.28,1611.9L1506.96,1622.09L1514.95,1628.31L1522.16,1639.74L1530.76,1652.42L1550.19,1657.89L1565.92,1652.42C1565.92,1652.42 1577.05,1651.8 1578.2,1652.42C1579.34,1653.05 1593.32,1652.42 1593.32,1652.42L1596.5,1645.34L1602.47,1636.64L1599.76,1617.49L1612.16,1617.49L1615.44,1622.09L1621.89,1609.29L1621.89,1590.52L1615.44,1574.73L1615.44,1568.64C1615.44,1568.64 1618.44,1578.46 1621.89,1579.33C1625.34,1580.2 1636.28,1590.52 1636.28,1590.52L1639.01,1598.6L1648.77,1590.52L1657.74,1582.69L1672.58,1574.73L1680.78,1561.56L1689.94,1557.45L1689.94,1568.64L1684.26,1579.33L1675.81,1586.91L1669.84,1598.6L1665.12,1604.57C1665.12,1604.57 1658.81,1610.28 1657.74,1611.9C1656.66,1613.52 1651.33,1615.75 1648.77,1617.49C1646.22,1619.23 1639.01,1617.49 1639.01,1617.49L1636.28,1617.49C1636.28,1617.49 1633.44,1625.2 1632.25,1628.31C1631.06,1631.42 1632.25,1636.64 1632.25,1636.64C1632.25,1636.64 1631.69,1644.1 1626.65,1645.34C1621.61,1646.58 1619.62,1646.83 1619.12,1649.57C1618.63,1652.3 1615.64,1653.79 1619.12,1654.54C1622.6,1655.28 1611.72,1653.54 1621.89,1654.54C1632.05,1655.53 1632.55,1654.54 1636.28,1654.54C1640.01,1654.54 1644.29,1652.42 1644.29,1652.42C1644.29,1652.42 1642.87,1648.82 1648.77,1649.57C1654.67,1650.31 1655.08,1647.58 1657.74,1649.57C1660.39,1651.55 1657.91,1647.08 1660.64,1652.42C1663.38,1657.77 1655.67,1660.26 1665.12,1663.24C1674.56,1666.22 1675.81,1666.47 1675.81,1666.47C1675.81,1666.47 1682.52,1666.47 1680.78,1669.2C1679.04,1671.94 1675.81,1675.92 1675.81,1675.92L1669.84,1675.92C1669.84,1675.92 1669.34,1676.66 1665.12,1672.69C1660.89,1668.71 1662.79,1667.71 1657.74,1666.47C1652.69,1665.23 1652.57,1662.49 1648.77,1663.24C1644.98,1663.98 1638.27,1663.24 1636.28,1663.24L1619.12,1663.24L1612.16,1666.47L1612.16,1672.69C1612.16,1672.69 1612.51,1675.92 1615.44,1675.92C1618.38,1675.92 1616.39,1678.9 1619.12,1675.92C1621.86,1672.93 1615.95,1675.42 1621.89,1672.69C1627.82,1669.95 1621.51,1667.71 1632.25,1669.2C1642.99,1670.7 1640.62,1666.72 1644.29,1669.2C1647.96,1671.69 1652.93,1672.69 1652.93,1672.69L1665.12,1675.92C1665.12,1675.92 1671.08,1676.17 1675.81,1678.9C1680.53,1681.64 1684.26,1689.09 1684.26,1689.09L1689.94,1693.07L1707.59,1704.01L1715.83,1712.96L1722.05,1725.14L1735.47,1732.35C1735.47,1732.35 1735.23,1722.16 1735.47,1718.43C1735.72,1714.7 1738.09,1704.26 1739.52,1701.53C1740.94,1698.79 1745.92,1694.32 1748.4,1689.09C1750.89,1683.87 1752.63,1680.64 1754.62,1675.92C1756.61,1671.19 1758.6,1663.24 1758.6,1663.24L1769.29,1663.24L1774.25,1660.75L1776.74,1645.34C1776.74,1645.34 1777.49,1641.61 1776.74,1636.64C1776,1631.66 1774.25,1625.95 1774.25,1625.95L1762.32,1622.09L1758.6,1609.29L1762.32,1609.29L1774.25,1611.9L1779.98,1622.09L1787.68,1628.31L1791.4,1625.95L1797.38,1611.9L1803.16,1611.9L1803.16,1633.16C1803.16,1633.16 1800.61,1640.61 1797.38,1642.6C1794.15,1644.59 1787.68,1647.33 1787.68,1647.33L1783.56,1654.54L1794.64,1652.42C1794.64,1652.42 1804.09,1649.57 1806.33,1647.33C1808.57,1645.09 1806.83,1645.59 1811.8,1642.6C1816.77,1639.62 1823.73,1636.64 1823.73,1636.64L1829.95,1639.74L1832.68,1647.33L1819.83,1647.33L1819.83,1652.42L1811.8,1654.54L1811.8,1663.24L1816.52,1672.69L1806.33,1669.2L1800.36,1660.75L1797.38,1660.75L1794.64,1666.47L1783.56,1672.69C1783.56,1672.69 1780.92,1674.43 1783.56,1675.92C1786.19,1677.41 1791.4,1675.92 1791.4,1675.92L1797.38,1672.69L1797.38,1675.92L1794.64,1683.63L1779.98,1686.61C1779.98,1686.61 1768.04,1687.85 1766.05,1689.09C1764.07,1690.34 1758.6,1696.06 1758.6,1696.06L1751.84,1704.01L1744.67,1712.96L1744.67,1725.14L1739.52,1732.35L1744.67,1762.68L1758.6,1776.11L1774.25,1787.79L1783.56,1800.72L1787.68,1816.83L1791.4,1848.06L1791.4,1856.61L1787.68,1874.11L1783.56,1884.26L1771.52,1890.62L1771.52,1898.58L1776.74,1902.36L1776.74,1928.81L1779.98,1936.96C1779.98,1936.96 1780.88,1951.88 1783.56,1954.07C1786.24,1956.26 1797.38,1961.43 1797.38,1961.43L1811.8,1964.21L1829.95,1964.21L1827.01,1954.07L1819.83,1948.1L1811.8,1940.94L1806.33,1932.59L1803.16,1922.84L1803.16,1918.66L1800.36,1908.12L1797.38,1892.61L1794.64,1874.11L1797.38,1859.39L1803.16,1845.87L1811.8,1830.56L1803.16,1825.78L1800.36,1807.29L1803.16,1800.72L1816.52,1814.45L1827.01,1823.99L1832.68,1828.57L1829.95,1833.94L1823.73,1833.94L1823.73,1839.31L1829.95,1845.87L1836.76,1848.06L1842.92,1845.87L1851.48,1842.49L1858.04,1842.49L1863.94,1845.87L1867.79,1839.31L1871.57,1825.78L1874.95,1821.01L1878.15,1833.94L1881.11,1842.49L1889.07,1848.06L1894.64,1848.06L1894.64,1837.32L1891.45,1828.57L1891.45,1807.29L1894.64,1811.66C1894.64,1811.66 1896.5,1820.41 1897.76,1823.99C1899.01,1827.57 1902.19,1833.94 1902.19,1833.94C1902.19,1833.94 1904.18,1841.1 1907.57,1842.49C1910.95,1843.88 1914.91,1845.87 1914.91,1845.87L1917.11,1839.31L1914.91,1830.56L1917.11,1830.56L1926.06,1833.94L1933.82,1842.49L1933.82,1854.82L1937.6,1865.96L1939.91,1865.96L1947.26,1859.39L1964.9,1865.96L1964.9,1854.82L1953.68,1848.06L1947.26,1837.32L1939.91,1823.99C1939.91,1823.99 1948.22,1819.77 1947.26,1814.45C1946.3,1809.12 1939.91,1800.72 1939.91,1800.72L1947.26,1791.64L1953.68,1776.11C1953.68,1776.11 1949,1773.77 1947.26,1767.56C1945.53,1761.34 1939.91,1750.85 1939.91,1750.85L1933.82,1740.37L1942.81,1740.37L1947.26,1755.52L1957.95,1767.56L1964.9,1776.11L1964.9,1791.64L1957.95,1807.29L1964.9,1825.78L1968.83,1814.45L1968.83,1800.72L1979.32,1800.72L1979.32,1814.45L1975.44,1830.56L1984.02,1825.78L1993.82,1830.56L2012.45,1842.49L2004.11,1825.78C2004.11,1825.78 2000.16,1825.13 2004.11,1821.01C2008.07,1816.89 2012.45,1811.66 2012.45,1811.66C2012.45,1811.66 2013.51,1814.05 2020.5,1816.83C2027.49,1819.61 2034.87,1821.01 2034.87,1821.01L2030.6,1800.72L2030.6,1787.79L2034.87,1787.79C2034.87,1787.79 2037.02,1791.25 2043.32,1791.64C2049.63,1792.03 2061.95,1794.75 2061.95,1794.75L2061.95,1791.64C2061.95,1791.64 2070.61,1793.19 2075.66,1794.75C2080.71,1796.3 2089.64,1794.75 2089.64,1794.75L2096.75,1787.79C2096.75,1787.79 2094.82,1779.21 2102.14,1779.21C2109.45,1779.21 2119.78,1776.11 2119.78,1776.11L2119.78,1767.56C2119.78,1767.56 2119.94,1781.15 2127.71,1783.48C2135.48,1785.82 2146.86,1791.64 2146.86,1791.64L2138.2,1800.72L2127.71,1800.72L2112.17,1791.64L2112.17,1794.75L2123.83,1807.29L2138.2,1816.83L2146.86,1821.01L2146.86,1828.57L2142.86,1833.94L2146.86,1845.87L2146.86,1859.39L2138.2,1874.11L2138.2,1884.26L2119.78,1892.61L2106.74,1890.62L2096.75,1884.26L2083.03,1884.26L2075.66,1890.62L2075.66,1884.26L2069.79,1865.96L2057.01,1874.11L2057.01,1890.62L2043.32,1884.26L2030.6,1877.88C2030.6,1877.88 2024.38,1865.69 2020.5,1865.96C2016.61,1866.23 2008.84,1865.96 2008.84,1865.96L1993.82,1859.39L1984.02,1865.96L1979.32,1874.11L1984.02,1884.26L1993.82,1890.62L2008.84,1892.61L2020.5,1902.36L2020.5,1913.23L2030.6,1928.81L2030.6,1940.94L2043.32,1954.07L2075.66,1961.43L2096.75,1954.07L2119.78,1948.1L2133.54,1948.1L2146.86,1940.94L2171.61,1954.07C2171.61,1954.07 2177.82,1950.73 2180.54,1948.1C2183.26,1945.47 2191.81,1928.81 2191.81,1928.81L2208.51,1936.96L2228.19,1948.1L2242.7,1936.96L2259.4,1936.96L2277.82,1940.94L2287.41,1940.94L2298.95,1932.59L2322,1928.81L2330.2,1940.94L2360.98,1954.07L2385.34,1964.21L2360.98,1973.33L2330.2,1973.33L2330.2,2004.28L2322,2019.46L2336.57,2026.74L2348.71,2026.74L2360.98,2019.46L2367.42,2032.81L2373.6,2044.95L2360.98,2044.95L2373.6,2059.52L2373.6,2068.62L2336.57,2068.62L2330.2,2074.08L2307.22,2090.48C2307.22,2090.48 2296.95,2095.95 2293.96,2096.2C2290.98,2096.45 2277.82,2096.2 2277.82,2096.2L2274.57,2109.12L2274.57,2125.53C2274.57,2125.53 2292.22,2133.49 2293.96,2137.22C2295.7,2140.95 2303.41,2156.11 2303.41,2156.11L2307.22,2173.02L2307.22,2188.93L2298.95,2202.11L2277.82,2204.1L2270.34,2216.28L2283.27,2223.74C2283.27,2223.74 2304.57,2229.95 2307.22,2232.19C2309.87,2234.43 2336.57,2247.35 2336.57,2247.35L2358.11,2257.05L2378.99,2259.78L2385.34,2247.35L2388.68,2238.16C2388.68,2238.16 2401.36,2239.4 2410.07,2241.14C2418.77,2242.88 2414.33,2239.4 2423.01,2243.63C2431.69,2247.85 2435.51,2252.08 2438.82,2253.82C2442.14,2255.56 2449.84,2263.02 2449.84,2263.02L2468.6,2277.44C2468.6,2277.44 2477.91,2288.62 2480.28,2289.87C2482.66,2291.11 2499.07,2289.87 2499.07,2289.87L2531.9,2274.45L2550.53,2263.02C2550.53,2263.02 2561.24,2253.57 2565.21,2250.59C2569.18,2247.6 2581.08,2238.16 2581.08,2238.16L2595.78,2227.96C2595.78,2227.96 2604.73,2220.01 2612.69,2220.01C2620.64,2220.01 2629.84,2221.75 2632.58,2220.01C2635.31,2218.27 2641.35,2216.28 2641.35,2216.28L2708.65,2216.28L2719.96,2223.74L2731.27,2225.72L2753.89,2227.96L2765.34,2232.19L2779.26,2232.19L2798.15,2238.16L2812.58,2241.14L2831.22,2243.63L2845.96,2250.59L2852.43,2253.82C2852.43,2253.82 2859.95,2262.64 2860.5,2265.38C2861.05,2268.11 2880.96,2283.78 2880.96,2283.78L2893.37,2304.66L2907.05,2319.08C2907.05,2319.08 2920.22,2327.53 2928.43,2330.51C2936.63,2333.5 2947.07,2337.72 2951.8,2339.47C2956.52,2341.21 2980.39,2345.18 2983.37,2346.18C2986.35,2347.17 3013.95,2358.36 3013.95,2358.36L3032.32,2362.8L3115.45,2362.8L3099.13,2368.24L3079.32,2368.24L3057.18,2371.35C3057.18,2371.35 3030.17,2372.13 3026,2371.35C3021.83,2370.57 3007.45,2364.75 3001.24,2362.8C2995.02,2360.86 2979.1,2351.15 2979.1,2351.15L2948.02,2351.15L2907.05,2330.51L2877.32,2304.66L2852.43,2274.45L2818.5,2257.05L2779.26,2247.35L2760.01,2243.63L2740.58,2238.16L2708.65,2238.16L2690.86,2241.14L2667.19,2247.35L2652.01,2250.59L2632.58,2253.82L2612.69,2257.05L2595.78,2257.05L2589.33,2277.44L2581.08,2304.66L2595.78,2319.08L2598.5,2334.84L2595.78,2358.36L2595.78,2379.9L2581.08,2391.55C2581.08,2391.55 2562.98,2388.44 2558.74,2391.55C2554.51,2394.66 2542.92,2398.93 2542.92,2398.93L2531.9,2414.47L2531.9,2425.35L2554.01,2430.78L2609.58,2455.67C2609.58,2455.67 2633.43,2462 2652.01,2469.37C2670.6,2476.75 2695.19,2502.04 2695.19,2502.04L2845.96,2651.67L3457.76,2679.07L3566.3,2603.2L3587.58,2044.95L3587.58,1973.33L4232.34,1018.85L3603.76,225.248L3587.58,-53.553L3176.82,-9.64L3165.03,38.522L3180.12,27.668L3197.97,15.591L3186,43.652L3186,94.264L3214.14,74.317L3227.58,77.645L3207.54,109.139L3211.69,165.809L3224.68,180.887L3224.68,239.574L3207.54,218.456L3201.51,260.817L3173.28,302.023L3201.51,334.09L3192.22,418.918L3248.33,474.689L3248.33,496.083L3288.53,531.813L3337.01,517.361L3339.22,540.945L3359.44,559.792L3330.31,563.654L3300.82,569L3266.19,566.065L3266.19,578.578L3254.66,578.578L3227.58,580.253L3186,578.578Z"/>
                    </g>
                    <g transform="matrix(0.0460428,0.0460428,-0.0460428,0.0460428,329.197,781.948)">
                        <path d="M299.423,591.667L287.837,586L282.044,581.112L282.044,571.457L275.929,565.986L271.423,561.158L261.446,561.158L258.55,565.986L251.469,565.986L246.963,561.158L240.848,571.457L240.848,574.997L232.48,581.112L225.078,581.112L219.929,586L212.848,586L212.848,599.779L219.929,602.997C219.929,602.997 228.297,599.779 232.48,599.779L246.963,599.779L246.963,606.538C246.963,606.538 236.021,608.79 232.48,610.078C228.94,611.365 219.929,615.227 219.929,615.227C219.929,615.227 218.963,620.055 225.078,620.055L240.848,620.055L255.653,610.078L275.929,610.078L282.044,602.997L293.63,599.779L299.423,591.667Z"/>
                    </g>
                    <g transform="matrix(0.0460428,0.0460428,-0.0460428,0.0460428,329.197,781.948)">
                        <path d="M315.744,627.823L311.625,620.055L307.341,624.362L303.221,627.823L299.266,631.283L299.266,634.249L307.341,634.249L311.625,631.283L315.744,627.823Z"/>
                    </g>
                    <g transform="matrix(0.0460428,0.0460428,-0.0460428,0.0460428,329.197,781.948)">
                        <path d="M320.688,643.312L320.688,648.915L327.444,648.915L333.706,643.312L320.688,643.312Z"/>
                    </g>
                    <g transform="matrix(0.0460428,0.0460428,-0.0460428,0.0460428,329.197,781.948)">
                        <path d="M327.444,664.404L327.444,671.82L331.564,677.257L337.166,677.257C337.166,677.257 342.769,679.235 344.252,677.257C345.735,675.28 350.349,671.82 350.349,671.82L348.536,660.614L341.615,660.614L341.615,664.404L337.166,664.404L334.53,660.614L331.564,664.404L327.444,664.404Z"/>
                    </g>
                    <g transform="matrix(0.0460428,0.0460428,-0.0460428,0.0460428,329.197,781.948)">
                        <path d="M350.349,688.463C350.349,688.463 346.229,690.934 348.536,691.758C350.843,692.582 352.82,693.241 353.809,691.758C354.798,690.275 355.292,688.463 355.292,688.463L350.349,686.156L350.349,688.463Z"/>
                    </g>
                    <g transform="matrix(0.0460428,0.0460428,-0.0460428,0.0460428,329.197,781.948)">
                        <path d="M366.497,688.463L364.685,691.758L372.924,693.736L378.197,691.758L378.197,686.815L372.924,684.014L370.782,686.815L366.497,688.463Z"/>
                    </g>
                    <g transform="matrix(0.0460428,0.0460428,-0.0460428,0.0460428,329.197,781.948)">
                        <path d="M424.501,713.18L417.58,720.76C417.58,720.76 414.449,727.516 417.58,727.516C420.711,727.516 420.875,726.857 422.688,725.044C424.501,723.232 424.501,718.947 424.501,718.947L432.905,715.157L428.95,710.214L424.501,713.18"/>
                    </g>
                    <g transform="matrix(0.0460428,0.0460428,-0.0460428,0.0460428,329.197,781.948)">
                        <path d="M373.26,1120.9L383.265,1138.26L394.741,1134.73L386.502,1120.9"/>
                    </g>
                </g>
                <rect x="248" y="809" width="193" height="193" style="fill:none;stroke:black;stroke-width:6.68px;"/>
            </g>
        </g>
    </g>
</svg>
