<?xml version="1.0" encoding="UTF-8" standalone="no"?>
<!DOCTYPE svg PUBLIC "-//W3C//DTD SVG 1.1//EN" "http://www.w3.org/Graphics/SVG/1.1/DTD/svg11.dtd">
<svg width="100%" height="100%" viewBox="0 0 88 88" version="1.1" xmlns="http://www.w3.org/2000/svg" xmlns:xlink="http://www.w3.org/1999/xlink" xml:space="preserve" xmlns:serif="http://www.serif.com/" style="fill-rule:evenodd;clip-rule:evenodd;stroke-linecap:round;stroke-linejoin:round;stroke-miterlimit:1.5;">
    <g transform="matrix(1,0,0,1,-1378.54,-371.331)">
        <g transform="matrix(1,0,0,1,707,25.5)">
            <g transform="matrix(0.22242,-0.22242,0.22242,0.22242,437.498,265.034)">
                <rect x="248" y="809" width="193" height="193" style="fill:white;fill-opacity:0.48;"/>
                <clipPath id="_clip1">
                    <rect x="248" y="809" width="193" height="193"/>
                </clipPath>
                <g clip-path="url(#_clip1)">
                    <g transform="matrix(0.919984,1.2081,-1.2081,0.919984,468.625,207.728)">
                        <path d="M307,382L354,380C352.246,374.062 350.333,366.794 348,356L349,356L349,357L353,355L350,351L349,351L349,352L348,352C348.981,346.514 350.928,335.835 348,336C337.959,336.566 322.937,348.558 312,361L307,382Z"/>
                        <g transform="matrix(8.99659,-1.46269,0.900228,5.53706,-9432.81,-5816.05)">
                            <rect x="936" y="1369" width="20" height="15"/>
                        </g>
                        <path d="M315,333L316,335L324,350L322,351L314,335L312,335L311,333L313,331L310,327L311,326L314,330L315,330L316,332L315,333Z"/>
                        <path d="M327,343L326,349L327,347L327.411,344.591L330.944,341.875L331.193,343.65L332.346,342.94L331.92,341.467L333.802,340.206L335.009,341.396L335.666,340.828L335.08,339.532L336.731,338.307L337.636,339.532L338.258,339.212L337.707,337.845L339.429,336.869L340.494,338.236L341.311,337.952L340.583,336.656L342.021,335.91L342.873,337.277L343.743,336.976L343.21,335.609L344.506,335.378L344.595,336.372L345.358,336.709L345.216,335.431L345.536,335.431L345.571,336.354L346.53,336.337L346.335,335.626L346.832,335.591L346.814,336.425L347.435,336.195L347.435,335.183L345.944,333.301L340.654,333.354L338.79,334.189L336.127,335.804L330.589,339.585L327.021,341.946L327,343Z"/>
                        <path d="M284.646,372.731L290.228,383.201L291.615,383.063L289.743,379.214L303.126,372.176L307.494,379.804L308.673,377.654L301.496,364.722L299.867,365.727L302.606,370.859L289.674,377.55L286.068,371.968L284.646,372.731Z"/>
                        <path d="M297.988,382.496L310.014,370.581L310.702,371.402L308.284,373.576L308.217,374.885L309.105,374.752L309.06,376.527L302.648,382.829L297.988,382.496L302.998,381.537L305.954,378.369L305.421,376.771L304.001,377.703L305.01,379.38L304.34,380.099L303.069,378.724L301.804,379.811L302.998,381.537"/>
                    </g>
                </g>
                <rect x="248" y="809" width="193" height="193" style="fill:none;stroke:black;stroke-width:6.7px;"/>
            </g>
        </g>
    </g>
</svg>
