<?xml version="1.0" encoding="UTF-8" standalone="no"?>
<!DOCTYPE svg PUBLIC "-//W3C//DTD SVG 1.1//EN" "http://www.w3.org/Graphics/SVG/1.1/DTD/svg11.dtd">
<svg width="100%" height="100%" viewBox="0 0 36 36" version="1.1" xmlns="http://www.w3.org/2000/svg" xmlns:xlink="http://www.w3.org/1999/xlink" xml:space="preserve" xmlns:serif="http://www.serif.com/" style="fill-rule:evenodd;clip-rule:evenodd;stroke-linejoin:round;stroke-miterlimit:2;">
    <g transform="matrix(1,0,0,1,-1282,-294.337)">
        <g id="Volume" transform="matrix(0.225,0,0,0.225,-673.486,270.037)">
            <g transform="matrix(1,0,0,1,1672.05,-610)">
                <circle cx="7099" cy="798" r="80"/>
            </g>
            <g transform="matrix(2,0,0,2,8690.55,-257)">
                <path d="M27.5,227.971L35.004,234.602C35.824,235.326 36.5,235.026 36.5,233.918L36.5,212.084C36.5,210.967 35.83,210.67 35.004,211.4L27.5,218.03L21.992,218.03C20.894,218.03 20,218.926 20,220.03L20,225.972C20,227.072 20.892,227.971 21.992,227.971L27.5,227.971Z" style="fill:white;"/>
            </g>
            <g transform="matrix(3.07601,-3.31356,3.07601,3.31356,3823.82,3462.74)">
                <path d="M1302,308.876C1302,308.737 1301.89,308.625 1301.75,308.625L1301.25,308.625C1301.11,308.625 1301,308.737 1301,308.876L1301,317.71C1301,317.849 1301.11,317.961 1301.25,317.961L1301.75,317.961C1301.89,317.961 1302,317.849 1302,317.71L1302,308.876Z" style="fill:white;"/>
            </g>
            <g transform="matrix(3.07601,3.31356,-3.07601,3.31356,5751.42,-5162.97)">
                <path d="M1302,308.876C1302,308.737 1301.89,308.625 1301.75,308.625L1301.25,308.625C1301.11,308.625 1301,308.737 1301,308.876L1301,317.71C1301,317.849 1301.11,317.961 1301.25,317.961L1301.75,317.961C1301.89,317.961 1302,317.849 1302,317.71L1302,308.876Z" style="fill:white;"/>
            </g>
        </g>
    </g>
</svg>
